<svg width="20" height="13" viewBox="0 0 20 13" fill="none" xmlns="http://www.w3.org/2000/svg">
<path d="M9.99998 12.6689C9.66898 12.6697 9.34819 12.5239 9.09332 12.2568L0.593317 3.29849C0.30401 2.99438 0.122076 2.55737 0.0875376 2.08361C0.0529996 1.60984 0.168687 1.13813 0.40915 0.772243C0.649613 0.406355 0.995155 0.176262 1.36976 0.132581C1.74436 0.0889011 2.11734 0.235211 2.40665 0.539326L9.99998 8.56599L17.5933 0.825994C17.7382 0.677168 17.905 0.566027 18.0839 0.498962C18.2629 0.431897 18.4506 0.410229 18.6362 0.435203C18.8219 0.460178 19.0018 0.531301 19.1656 0.644488C19.3294 0.757674 19.4739 0.910692 19.5908 1.09474C19.7206 1.27897 19.8188 1.49509 19.8794 1.72957C19.9401 1.96405 19.9617 2.21184 19.9431 2.45741C19.9245 2.70298 19.866 2.94105 19.7712 3.15669C19.6765 3.37232 19.5475 3.56089 19.3925 3.71058L10.8925 12.3643C10.6303 12.5892 10.316 12.6965 9.99998 12.6689Z" fill="#ffffff"/>
</svg>
