<svg width="30" height="30" viewBox="0 0 30 30" fill="none" xmlns="http://www.w3.org/2000/svg">
<rect x="0.5" y="0.5" width="29" height="29" rx="14.5" fill="#E9EAF0" stroke="black"/>
<path fill-rule="evenodd" clip-rule="evenodd" d="M15.4044 10.6057C12.7156 10.7939 10.5928 13.0348 10.5928 15.7715C10.5928 18.6315 12.9113 20.9501 15.7714 20.9501C18.0627 20.9501 20.0069 19.4616 20.6891 17.3991C20.164 17.616 19.5886 17.7358 18.9856 17.7358C16.5201 17.7358 14.5214 15.737 14.5214 13.2715C14.5214 12.2721 14.85 11.3494 15.4044 10.6057ZM9.52136 15.7715C9.52136 12.3197 12.3196 9.52148 15.7714 9.52148C16.0925 9.52148 16.4083 9.54575 16.717 9.59264C16.9306 9.62508 17.1038 9.78258 17.1562 9.9921C17.2087 10.2016 17.1303 10.4222 16.9572 10.5514C16.128 11.171 15.5928 12.1587 15.5928 13.2715C15.5928 15.1453 17.1118 16.6643 18.9856 16.6643C19.7958 16.6643 20.5384 16.3811 21.1218 15.9077C21.2894 15.7716 21.5223 15.7495 21.7125 15.8516C21.9028 15.9536 22.0132 16.1599 21.9926 16.3748C21.6887 19.5438 19.0197 22.0215 15.7714 22.0215C12.3196 22.0215 9.52136 19.2233 9.52136 15.7715Z" fill="#24272C"/>
</svg>
