<svg xmlns="http://www.w3.org/2000/svg" width="13" height="13" viewBox="0 0 13 13" fill="none">
  <path d="M3.24996 1.625H9.20829V8.66667L5.41663 12.4583L4.73954 11.7813C4.67635 11.7181 4.62444 11.6323 4.58381 11.524C4.54319 11.4156 4.52288 11.3118 4.52288 11.2125V11.0229L5.11871 8.66667H1.62496C1.33607 8.66667 1.08329 8.55833 0.866626 8.34167C0.649959 8.125 0.541626 7.87222 0.541626 7.58333V6.5C0.541626 6.43681 0.550654 6.3691 0.568709 6.29688C0.586765 6.22465 0.60482 6.15694 0.622876 6.09375L2.24788 2.275C2.32913 2.09444 2.46454 1.94097 2.65413 1.81458C2.84371 1.68819 3.04232 1.625 3.24996 1.625ZM8.12496 2.70833H3.24996L1.62496 6.5V7.58333H6.49996L5.76871 10.5625L8.12496 8.20625V2.70833ZM9.20829 8.66667V7.58333H10.8333V2.70833H9.20829V1.625H11.9166V8.66667H9.20829Z" fill="#191F28"/>
</svg>