<svg width="13" height="13" viewBox="0 0 13 13" fill="none" xmlns="http://www.w3.org/2000/svg">
<path d="M3.25002 0.625H9.20835V7.66667L5.41669 11.4583L4.7396 10.7813C4.67641 10.7181 4.6245 10.6323 4.58387 10.524C4.54325 10.4156 4.52294 10.3118 4.52294 10.2125V10.0229L5.11877 7.66667H1.62502C1.33613 7.66667 1.08335 7.55833 0.866687 7.34167C0.65002 7.125 0.541687 6.87222 0.541687 6.58333V5.5C0.541687 5.43681 0.550715 5.3691 0.56877 5.29688C0.586826 5.22465 0.604881 5.15694 0.622937 5.09375L2.24794 1.275C2.32919 1.09444 2.4646 0.940972 2.65419 0.814583C2.84377 0.688194 3.04238 0.625 3.25002 0.625ZM8.12502 1.70833H3.25002L1.62502 5.5V6.58333H6.50002L5.76877 9.5625L8.12502 7.20625V1.70833ZM9.20835 7.66667V6.58333H10.8334V1.70833H9.20835V0.625H11.9167V7.66667H9.20835Z" fill="white"/>
</svg>
