<svg width="30" height="30" viewBox="0 0 30 30" fill="none" xmlns="http://www.w3.org/2000/svg">
<rect x="0.5" y="0.5" width="29" height="29" rx="14.5" fill="#191F28" stroke="black"/>
<rect width="17.1429" height="17.1429" transform="translate(6.42847 6.42773)" fill="#191F28"/>
<path d="M14.9999 7.32031C15.2957 7.32031 15.5356 7.56016 15.5356 7.85603V8.57031C15.5356 8.86618 15.2957 9.10603 14.9999 9.10603C14.704 9.10603 14.4641 8.86618 14.4641 8.57031V7.85603C14.4641 7.56016 14.704 7.32031 14.9999 7.32031Z" fill="#E5E8EB"/>
<path fill-rule="evenodd" clip-rule="evenodd" d="M10.8927 14.9989C10.8927 12.7306 12.7315 10.8917 14.9999 10.8917C17.2682 10.8917 19.107 12.7306 19.107 14.9989C19.107 17.2672 17.2682 19.106 14.9999 19.106C12.7315 19.106 10.8927 17.2672 10.8927 14.9989ZM14.9999 11.9632C13.3233 11.9632 11.9641 13.3223 11.9641 14.9989C11.9641 16.6755 13.3233 18.0346 14.9999 18.0346C16.6764 18.0346 18.0356 16.6755 18.0356 14.9989C18.0356 13.3223 16.6764 11.9632 14.9999 11.9632Z" fill="#E5E8EB"/>
<path d="M10.3279 9.56933C10.1187 9.36012 9.77951 9.36012 9.5703 9.56933C9.36109 9.77854 9.36109 10.1177 9.5703 10.3269L10.0754 10.832C10.2846 11.0412 10.6238 11.0412 10.833 10.832C11.0422 10.6228 11.0422 10.2836 10.833 10.0744L10.3279 9.56933Z" fill="#E5E8EB"/>
<path d="M22.6784 14.9989C22.6784 15.2948 22.4386 15.5346 22.1427 15.5346H21.4284C21.1326 15.5346 20.8927 15.2948 20.8927 14.9989C20.8927 14.703 21.1326 14.4632 21.4284 14.4632H22.1427C22.4386 14.4632 22.6784 14.703 22.6784 14.9989Z" fill="#E5E8EB"/>
<path d="M20.4294 10.3269C20.6386 10.1177 20.6386 9.77853 20.4294 9.56932C20.2202 9.36011 19.881 9.36011 19.6718 9.56932L19.1667 10.0744C18.9575 10.2836 18.9575 10.6228 19.1667 10.832C19.3759 11.0412 19.7151 11.0412 19.9243 10.832L20.4294 10.3269Z" fill="#E5E8EB"/>
<path d="M14.9999 20.8917C15.2957 20.8917 15.5356 21.1316 15.5356 21.4275V22.1417C15.5356 22.4376 15.2957 22.6775 14.9999 22.6775C14.704 22.6775 14.4641 22.4376 14.4641 22.1417V21.4275C14.4641 21.1316 14.704 20.8917 14.9999 20.8917Z" fill="#E5E8EB"/>
<path d="M19.9244 19.1658C19.7152 18.9565 19.376 18.9565 19.1668 19.1658C18.9576 19.375 18.9576 19.7142 19.1668 19.9234L19.6718 20.4284C19.8811 20.6377 20.2203 20.6377 20.4295 20.4284C20.6387 20.2192 20.6387 19.88 20.4295 19.6708L19.9244 19.1658Z" fill="#E5E8EB"/>
<path d="M9.107 14.9989C9.107 15.2948 8.86716 15.5346 8.57129 15.5346H7.857C7.56114 15.5346 7.32129 15.2948 7.32129 14.9989C7.32129 14.703 7.56114 14.4632 7.857 14.4632H8.57129C8.86716 14.4632 9.107 14.703 9.107 14.9989Z" fill="#E5E8EB"/>
<path d="M10.8329 19.9234C11.0422 19.7142 11.0422 19.375 10.8329 19.1658C10.6237 18.9565 10.2845 18.9565 10.0753 19.1658L9.57025 19.6708C9.36104 19.88 9.36104 20.2192 9.57025 20.4284C9.77946 20.6377 10.1187 20.6377 10.3279 20.4284L10.8329 19.9234Z" fill="#E5E8EB"/>
</svg>
