<svg width="13" height="13" viewBox="0 0 13 13" fill="none" xmlns="http://www.w3.org/2000/svg">
<path d="M9.90476 11.403H3.09524V4.01771L7.42857 0.0410156L8.20238 0.75114C8.2746 0.817418 8.33393 0.907367 8.38036 1.02099C8.42679 1.13461 8.45 1.24349 8.45 1.34764V1.54648L7.76905 4.01771H11.7619C12.0921 4.01771 12.381 4.13133 12.6286 4.35857C12.8762 4.58581 13 4.85092 13 5.15391V6.29011C13 6.35638 12.9897 6.4274 12.969 6.50314C12.9484 6.57889 12.9278 6.6499 12.9071 6.71618L11.05 10.7213C10.9571 10.9106 10.8024 11.0716 10.5857 11.2042C10.369 11.3367 10.1421 11.403 9.90476 11.403ZM4.33333 10.2668H9.90476L11.7619 6.29011V5.15391H6.19048L7.02619 2.02936L4.33333 4.50059V10.2668ZM3.09524 4.01771V5.15391H1.2381V10.2668H3.09524V11.403H0V4.01771H3.09524Z" fill="white"/>
</svg>
