<svg width="30" height="30" viewBox="0 0 30 30" fill="none" xmlns="http://www.w3.org/2000/svg">
<circle cx="15" cy="15" r="14.5" fill="#FFDF5F" stroke="#191F28"/>
<mask id="path-2-inside-1_463_2874" fill="white">
<path d="M20.2702 17.8432H10.5405V16.4371L11.3485 15.6291V13.7863C11.3485 11.5458 13.1648 9.72949 15.4054 9.72949C17.6459 9.72949 19.4623 11.5458 19.4623 13.7863V15.6295L20.2703 16.4375L20.2702 17.8432ZM11.3866 16.9972H19.4242V16.7857L18.6162 15.9777V13.7864C18.6162 12.0131 17.1787 10.5756 15.4054 10.5756C13.6321 10.5756 12.1946 12.0131 12.1946 13.7864V15.9789L11.3866 16.7873V16.9972ZM15.4054 19.4761C14.5069 19.4752 13.7782 18.7495 13.7725 17.8522V17.8517C13.7721 17.839 13.7719 17.8241 13.7719 17.8092C13.7719 17.6151 13.8089 17.4296 13.8763 17.2595L13.8728 17.2696L14.6621 17.5746C14.635 17.6435 14.6193 17.7234 14.6193 17.8069C14.6193 17.8157 14.6195 17.8244 14.6199 17.833L14.6198 17.8318V17.8453C14.6198 18.2799 14.9721 18.6322 15.4067 18.6322C15.8412 18.6322 16.1935 18.2799 16.1935 17.8453V17.8318C16.1938 17.8244 16.194 17.8157 16.194 17.8069C16.194 17.7234 16.1783 17.6435 16.1497 17.5701L16.1512 17.5746L16.9406 17.2696C17.0029 17.4279 17.0391 17.6113 17.0391 17.8031C17.0391 17.8202 17.0388 17.8372 17.0382 17.8541L17.0383 17.8517C17.0325 18.7495 16.3039 19.4752 15.4055 19.4761H15.4054H15.4054Z"/>
</mask>
<path d="M20.2702 17.8432H10.5405V16.4371L11.3485 15.6291V13.7863C11.3485 11.5458 13.1648 9.72949 15.4054 9.72949C17.6459 9.72949 19.4623 11.5458 19.4623 13.7863V15.6295L20.2703 16.4375L20.2702 17.8432ZM11.3866 16.9972H19.4242V16.7857L18.6162 15.9777V13.7864C18.6162 12.0131 17.1787 10.5756 15.4054 10.5756C13.6321 10.5756 12.1946 12.0131 12.1946 13.7864V15.9789L11.3866 16.7873V16.9972ZM15.4054 19.4761C14.5069 19.4752 13.7782 18.7495 13.7725 17.8522V17.8517C13.7721 17.839 13.7719 17.8241 13.7719 17.8092C13.7719 17.6151 13.8089 17.4296 13.8763 17.2595L13.8728 17.2696L14.6621 17.5746C14.635 17.6435 14.6193 17.7234 14.6193 17.8069C14.6193 17.8157 14.6195 17.8244 14.6199 17.833L14.6198 17.8318V17.8453C14.6198 18.2799 14.9721 18.6322 15.4067 18.6322C15.8412 18.6322 16.1935 18.2799 16.1935 17.8453V17.8318C16.1938 17.8244 16.194 17.8157 16.194 17.8069C16.194 17.7234 16.1783 17.6435 16.1497 17.5701L16.1512 17.5746L16.9406 17.2696C17.0029 17.4279 17.0391 17.6113 17.0391 17.8031C17.0391 17.8202 17.0388 17.8372 17.0382 17.8541L17.0383 17.8517C17.0325 18.7495 16.3039 19.4752 15.4055 19.4761H15.4054H15.4054Z" fill="#323232"/>
<path d="M20.2702 17.8432V18.8432H21.2702L21.2702 17.8432L20.2702 17.8432ZM10.5405 17.8432H9.54053V18.8432H10.5405V17.8432ZM10.5405 16.4371L9.83342 15.73L9.54053 16.0229V16.4371H10.5405ZM11.3485 15.6291L12.0556 16.3362L12.3485 16.0433V15.6291H11.3485ZM19.4623 15.6295H18.4623V16.0437L18.7552 16.3366L19.4623 15.6295ZM20.2703 16.4375L21.2703 16.4375L21.2703 16.0233L20.9774 15.7304L20.2703 16.4375ZM11.3866 16.9972H10.3866V17.9972H11.3866V16.9972ZM19.4242 16.9972V17.9972H20.4242V16.9972H19.4242ZM19.4242 16.7857H20.4242V16.3714L20.1313 16.0785L19.4242 16.7857ZM18.6162 15.9777H17.6162V16.3919L17.9091 16.6848L18.6162 15.9777ZM12.1946 15.9789L12.9019 16.6859L13.1946 16.393V15.9789H12.1946ZM11.3866 16.7873L10.6793 16.0804L10.3866 16.3733V16.7873H11.3866ZM15.4054 19.4761L15.4043 20.4761H15.4054V19.4761ZM13.7725 17.8522H12.7725L12.7725 17.8586L13.7725 17.8522ZM13.7725 17.8517H14.7725V17.8366L14.772 17.8216L13.7725 17.8517ZM13.8763 17.2595L14.8206 17.5885L12.9465 16.8913L13.8763 17.2595ZM13.8728 17.2696L12.9284 16.9406L12.6103 17.8538L13.5123 18.2024L13.8728 17.2696ZM14.6621 17.5746L15.5929 17.9401L15.9604 17.0042L15.0225 16.6418L14.6621 17.5746ZM14.6199 17.833L13.6206 17.8726L15.6194 17.8023L14.6199 17.833ZM14.6198 17.8318L15.6193 17.801L13.6198 17.8318H14.6198ZM16.1935 17.8318L15.1943 17.7908L15.1935 17.8113V17.8318H16.1935ZM16.1497 17.5701L17.0815 17.2071L15.2037 17.8943L16.1497 17.5701ZM16.1512 17.5746L15.2052 17.8987L15.5421 18.882L16.5116 18.5074L16.1512 17.5746ZM16.9406 17.2696L17.871 16.903L17.5068 15.9787L16.5801 16.3368L16.9406 17.2696ZM17.0382 17.8541L16.0387 17.8232L18.0377 17.8878L17.0382 17.8541ZM17.0383 17.8517L18.0383 17.8581L16.0388 17.8207L17.0383 17.8517ZM15.4055 19.4761V20.4761L15.4065 20.4761L15.4055 19.4761ZM20.2702 16.8432H10.5405V18.8432H20.2702V16.8432ZM11.5405 17.8432V16.4371H9.54053V17.8432H11.5405ZM11.2476 17.1442L12.0556 16.3362L10.6414 14.922L9.83342 15.73L11.2476 17.1442ZM12.3485 15.6291V13.7863H10.3485V15.6291H12.3485ZM12.3485 13.7863C12.3485 12.0981 13.7171 10.7295 15.4054 10.7295V8.72949C12.6126 8.72949 10.3485 10.9935 10.3485 13.7863H12.3485ZM15.4054 10.7295C17.0936 10.7295 18.4623 12.0981 18.4623 13.7863H20.4623C20.4623 10.9935 18.1982 8.72949 15.4054 8.72949V10.7295ZM18.4623 13.7863V15.6295H20.4623V13.7863H18.4623ZM18.7552 16.3366L19.5632 17.1446L20.9774 15.7304L20.1694 14.9224L18.7552 16.3366ZM19.2703 16.4375L19.2702 17.8432L21.2702 17.8432L21.2703 16.4375L19.2703 16.4375ZM11.3866 17.9972H19.4242V15.9972H11.3866V17.9972ZM20.4242 16.9972V16.7857H18.4242V16.9972H20.4242ZM20.1313 16.0785L19.3233 15.2705L17.9091 16.6848L18.7171 17.4928L20.1313 16.0785ZM19.6162 15.9777V13.7864H17.6162V15.9777H19.6162ZM19.6162 13.7864C19.6162 11.4608 17.731 9.57556 15.4054 9.57556V11.5756C16.6264 11.5756 17.6162 12.5654 17.6162 13.7864H19.6162ZM15.4054 9.57556C13.0798 9.57556 11.1946 11.4608 11.1946 13.7864H13.1946C13.1946 12.5654 14.1844 11.5756 15.4054 11.5756V9.57556ZM11.1946 13.7864V15.9789H13.1946V13.7864H11.1946ZM11.4873 15.272L10.6793 16.0804L12.0939 17.4943L12.9019 16.6859L11.4873 15.272ZM10.3866 16.7873V16.9972H12.3866V16.7873H10.3866ZM15.4064 18.4761C15.0576 18.4758 14.7747 18.194 14.7725 17.8458L12.7725 17.8586C12.7818 19.305 13.9562 20.4746 15.4043 20.4761L15.4064 18.4761ZM14.7725 17.8522V17.8517H12.7725V17.8522H14.7725ZM14.772 17.8216C14.772 17.8209 14.772 17.8192 14.7719 17.8167C14.7719 17.8142 14.7719 17.8116 14.7719 17.8092H12.7719C12.7719 17.8335 12.7722 17.8585 12.7729 17.8817L14.772 17.8216ZM14.7719 17.8092C14.7719 17.7432 14.7843 17.6825 14.806 17.6276L12.9465 16.8913C12.8335 17.1767 12.7719 17.4869 12.7719 17.8092H14.7719ZM12.9319 16.9305L12.9284 16.9406L14.8171 17.5986L14.8206 17.5885L12.9319 16.9305ZM13.5123 18.2024L14.3017 18.5074L15.0225 16.6418L14.2332 16.3368L13.5123 18.2024ZM13.7313 17.2091C13.6576 17.3969 13.6193 17.601 13.6193 17.8069H15.6193C15.6193 17.8458 15.6125 17.8902 15.5929 17.9401L13.7313 17.2091ZM13.6193 17.8069C13.6193 17.8287 13.6198 17.8506 13.6206 17.8726L15.6191 17.7935C15.6193 17.7981 15.6193 17.8026 15.6193 17.8069H13.6193ZM15.6194 17.8023L15.6193 17.801L13.6203 17.8626L13.6203 17.8638L15.6194 17.8023ZM13.6198 17.8318V17.8453H15.6198V17.8318H13.6198ZM13.6198 17.8453C13.6198 18.8322 14.4198 19.6322 15.4067 19.6322V17.6322C15.5244 17.6322 15.6198 17.7276 15.6198 17.8453H13.6198ZM15.4067 19.6322C16.3935 19.6322 17.1935 18.8322 17.1935 17.8453H15.1935C15.1935 17.7276 15.289 17.6322 15.4067 17.6322V19.6322ZM17.1935 17.8453V17.8318H15.1935V17.8453H17.1935ZM17.1927 17.8728C17.1936 17.8501 17.194 17.8276 17.194 17.8069H15.194C15.194 17.8049 15.194 17.8028 15.194 17.8006C15.1941 17.7984 15.1942 17.7952 15.1943 17.7908L17.1927 17.8728ZM17.194 17.8069C17.194 17.5971 17.1544 17.3943 17.0815 17.2071L15.2179 17.9331C15.2022 17.8928 15.194 17.8497 15.194 17.8069H17.194ZM15.2037 17.8943L15.2052 17.8987L17.0972 17.2504L17.0957 17.246L15.2037 17.8943ZM16.5116 18.5074L17.301 18.2024L16.5801 16.3368L15.7908 16.6418L16.5116 18.5074ZM16.0102 17.6361C16.0256 17.6752 16.0391 17.734 16.0391 17.8031H18.0391C18.0391 17.4885 17.9803 17.1806 17.871 16.903L16.0102 17.6361ZM16.0391 17.8031C16.0391 17.809 16.039 17.8148 16.0388 17.8205L18.0377 17.8878C18.0386 17.8596 18.0391 17.8313 18.0391 17.8031H16.0391ZM18.0377 17.8851L18.0378 17.8826L16.0388 17.8207L16.0387 17.8232L18.0377 17.8851ZM16.0383 17.8453C16.0361 18.1942 15.7529 18.4758 15.4045 18.4761L15.4065 20.4761C16.8548 20.4746 18.029 19.3047 18.0383 17.8581L16.0383 17.8453ZM15.4055 18.4761H15.4054V20.4761H15.4055V18.4761ZM15.4054 18.4761H15.4054V20.4761H15.4054V18.4761Z" fill="#191F28" mask="url(#path-2-inside-1_463_2874)"/>
</svg>
