<svg width="20" height="20" viewBox="0 0 20 20" fill="none" xmlns="http://www.w3.org/2000/svg">
<path d="M8.6715 0.0247757C3.88979 0.0247757 0 3.91456 0 8.69627C0 13.478 3.88979 17.3678 8.6715 17.3678C10.1333 17.3678 11.5703 17.0209 12.7843 16.352C12.8815 16.469 12.9893 16.5768 13.1063 16.674L15.5839 19.1516C15.8127 19.409 16.0917 19.617 16.4037 19.7627C16.7157 19.9084 17.0543 19.9888 17.3985 19.9989C17.7428 20.009 18.0854 19.9487 18.4055 19.8216C18.7256 19.6945 19.0163 19.5033 19.2598 19.2598C19.5033 19.0163 19.6945 18.7256 19.8216 18.4055C19.9487 18.0854 20.009 17.7428 19.9989 17.3985C19.9888 17.0543 19.9084 16.7157 19.7627 16.4037C19.617 16.0917 19.409 15.8127 19.1516 15.5839L16.674 13.1063C16.5534 12.9856 16.4205 12.8777 16.2776 12.7843C16.9466 11.5703 17.3678 10.158 17.3678 8.67149C17.3678 3.88978 13.478 0 8.69627 0L8.6715 0.0247757ZM8.6715 2.50235C12.1153 2.50235 14.8654 5.25245 14.8654 8.69627C14.8654 10.3315 14.2708 11.8428 13.2302 12.9577C13.2054 12.9825 13.1807 13.0072 13.1559 13.032C13.0389 13.1293 12.9311 13.2371 12.8338 13.3541C11.7437 14.3451 10.2571 14.915 8.64672 14.915C5.2029 14.915 2.45279 12.1649 2.45279 8.72104C2.45279 5.27722 5.2029 2.52712 8.64672 2.52712L8.6715 2.50235Z" fill="#6B7684"/>
</svg>
