<?xml version="1.0" standalone="no"?>
<!DOCTYPE svg PUBLIC "-//W3C//DTD SVG 20010904//EN"
 "http://www.w3.org/TR/2001/REC-SVG-20010904/DTD/svg10.dtd">
<svg version="1.0" xmlns="http://www.w3.org/2000/svg"
 width="142.000000pt" height="151.000000pt" viewBox="0 0 142.000000 151.000000"
 preserveAspectRatio="xMidYMid meet">

<g transform="translate(0.000000,151.000000) scale(0.100000,-0.100000)"
fill="#000000" stroke="none">
<path d="M533 1295 c-172 -47 -313 -189 -358 -360 -62 -241 79 -499 321 -586
90 -33 235 -31 329 4 l70 26 100 -98 c109 -108 141 -124 208 -102 76 25 119
118 86 184 -6 12 -54 65 -106 118 l-95 97 26 65 c107 268 -53 577 -338 653
-65 17 -176 17 -243 -1z m284 -161 c77 -37 120 -81 164 -164 21 -39 24 -59 24
-155 0 -101 -2 -114 -28 -163 -56 -107 -146 -172 -266 -191 -120 -19 -231 18
-318 106 -69 70 -96 141 -96 248 0 107 27 178 96 249 117 119 271 144 424 70z"/>
</g>
</svg>
