<svg width="40" height="35" viewBox="0 0 40 35" fill="none" xmlns="http://www.w3.org/2000/svg">
<path d="M3.63636 35C2.63636 35 1.7803 34.6573 1.06818 33.9719C0.356061 33.2865 0 32.4625 0 31.5V10.5C0 9.5375 0.356061 8.71354 1.06818 8.02812C1.7803 7.34271 2.63636 7 3.63636 7H9.36364L12.7273 3.5H23.6364V7H14.3182L11 10.5H3.63636V31.5H32.7273V15.75H36.3636V31.5C36.3636 32.4625 36.0076 33.2865 35.2955 33.9719C34.5833 34.6573 33.7273 35 32.7273 35H3.63636ZM32.7273 10.5V7H29.0909V3.5H32.7273V0H36.3636V3.5H40V7H36.3636V10.5H32.7273ZM18.1818 28.875C20.4545 28.875 22.3864 28.1094 23.9773 26.5781C25.5682 25.0469 26.3636 23.1875 26.3636 21C26.3636 18.8125 25.5682 16.9531 23.9773 15.4219C22.3864 13.8906 20.4545 13.125 18.1818 13.125C15.9091 13.125 13.9773 13.8906 12.3864 15.4219C10.7955 16.9531 10 18.8125 10 21C10 23.1875 10.7955 25.0469 12.3864 26.5781C13.9773 28.1094 15.9091 28.875 18.1818 28.875ZM18.1818 25.375C16.9091 25.375 15.8333 24.9521 14.9545 24.1063C14.0758 23.2604 13.6364 22.225 13.6364 21C13.6364 19.775 14.0758 18.7396 14.9545 17.8938C15.8333 17.0479 16.9091 16.625 18.1818 16.625C19.4545 16.625 20.5303 17.0479 21.4091 17.8938C22.2879 18.7396 22.7273 19.775 22.7273 21C22.7273 22.225 22.2879 23.2604 21.4091 24.1063C20.5303 24.9521 19.4545 25.375 18.1818 25.375Z" fill="#E5E8EB"/>
</svg>
